<svg width="18" height="20" viewBox="0 0 18 20" fill="none" xmlns="http://www.w3.org/2000/svg">
<path d="M8.99979 4C8.44979 4 7.97913 3.80433 7.5878 3.413C7.19646 3.02167 7.00046 2.55067 6.99979 2C6.99979 1.45 7.1958 0.979333 7.5878 0.588C7.9798 0.196667 8.45046 0.000666667 8.99979 0C9.5498 0 10.0208 0.196 10.4128 0.588C10.8048 0.98 11.0005 1.45067 10.9998 2C10.9998 2.55 10.8041 3.021 10.4128 3.413C10.0215 3.805 9.55046 4.00067 8.99979 4ZM5.99979 19V7C5.18313 6.93333 4.35813 6.84167 3.5248 6.725C2.69146 6.60833 1.87479 6.45833 1.07479 6.275C0.791462 6.20833 0.562462 6.05 0.387795 5.8C0.213128 5.55 0.167128 5.28333 0.249795 5C0.333128 4.71667 0.508129 4.50833 0.774795 4.375C1.04146 4.24167 1.3248 4.20833 1.6248 4.275C2.79146 4.525 4.00413 4.70833 5.26279 4.825C6.52146 4.94167 7.76713 5 8.99979 5C10.2331 5 11.4791 4.94167 12.7378 4.825C13.9965 4.70833 15.2088 4.525 16.3748 4.275C16.6748 4.20833 16.9581 4.24167 17.2248 4.375C17.4915 4.50833 17.6665 4.71667 17.7498 5C17.8331 5.28333 17.7875 5.55 17.6128 5.8C17.4381 6.05 17.2088 6.20833 16.9248 6.275C16.1248 6.45833 15.3081 6.60833 14.4748 6.725C13.6415 6.84167 12.8165 6.93333 11.9998 7V19C11.9998 19.2833 11.9041 19.521 11.7128 19.713C11.5215 19.905 11.2838 20.0007 10.9998 20C10.7165 20 10.4791 19.904 10.2878 19.712C10.0965 19.52 10.0005 19.2827 9.99979 19V14H7.99979V19C7.99979 19.2833 7.90379 19.521 7.71179 19.713C7.51979 19.905 7.28246 20.0007 6.99979 20C6.71646 20 6.47913 19.904 6.2878 19.712C6.09646 19.52 6.00046 19.2827 5.99979 19Z" fill="#0E0E0E"/>
</svg>
