<svg width="16" height="22" viewBox="0 0 16 22" fill="none" xmlns="http://www.w3.org/2000/svg">
<path d="M8.00014 0.714233C6.41754 0.714291 4.87325 1.2011 3.57672 2.10863C2.28018 3.01616 1.29414 4.30049 0.752317 5.78746C0.210499 7.27442 0.139124 8.89204 0.547873 10.4209C0.956622 11.9498 1.82571 13.316 3.03728 14.3342C3.38185 14.6248 3.61928 14.9651 3.70585 15.3268L4.00585 16.5714H11.9961L12.2953 15.3268C12.3819 14.9651 12.6193 14.6248 12.9639 14.3342C14.1755 13.316 15.0446 11.9497 15.4533 10.4207C15.862 8.89175 15.7906 7.27405 15.2487 5.78705C14.7067 4.30005 13.7206 3.01572 12.4239 2.10826C11.1272 1.20079 9.58281 0.714115 8.00014 0.714233ZM11.6867 17.8571H4.31442L4.62471 19.1497C4.77059 19.7579 5.11692 20.2993 5.60794 20.6868C6.09896 21.0743 6.70609 21.2852 7.33157 21.2857H8.667C9.29277 21.2856 9.9003 21.0748 10.3917 20.6873C10.883 20.2998 11.2296 19.7582 11.3756 19.1497L11.6867 17.8571Z" fill="#0E0E0E"/>
</svg>
