<svg width="22" height="22" viewBox="0 0 22 22" fill="none" xmlns="http://www.w3.org/2000/svg">
<path d="M10.9998 21.2454C16.5948 21.2454 21.2453 16.6048 21.2453 10.9999C21.2453 5.40495 16.6047 0.754517 11.0097 0.754517C10.4774 0.754517 10.2164 1.07595 10.2164 1.59795V5.49537C10.2164 5.92737 10.5078 6.2788 10.9493 6.2788C11.3915 6.2788 11.6928 5.92737 11.6928 5.49537V2.49195C16.1127 2.84337 19.5275 6.49995 19.5275 10.9999C19.5322 12.1216 19.3148 13.2331 18.8881 14.2704C18.4613 15.3077 17.8335 16.2503 17.0408 17.0439C16.2481 17.8375 15.3063 18.4665 14.2695 18.8945C13.2327 19.3226 12.1215 19.5412 10.9998 19.5379C6.25854 19.5379 2.45197 15.7408 2.46182 10.9999C2.47168 8.89052 3.22511 6.97223 4.48082 5.49537C4.79197 5.10366 4.81211 4.6318 4.48082 4.27995C4.14911 3.91866 3.58682 3.94866 3.22511 4.4008C1.68825 6.18837 0.754395 8.4988 0.754395 10.9999C0.754395 16.6048 5.39497 21.2454 10.9998 21.2454ZM12.607 12.5467C13.4003 11.7229 13.24 10.5979 12.2855 9.93537L6.97125 6.22866C6.46939 5.87723 5.94697 6.39966 6.2984 6.90152L10.0051 12.2154C10.6681 13.1698 11.7931 13.3404 12.607 12.5467Z" fill="#0E0E0E"/>
</svg>
