<svg width="32" height="32" viewBox="0 0 32 32" fill="none" xmlns="http://www.w3.org/2000/svg">
  <symbol id="reset-basket">
    <path id="Vector"
      d="M28 3H4C2.89543 3 2 3.89543 2 5V6C2 7.10457 2.89543 8 4 8H28C29.1046 8 30 7.10457 30 6V5C30 3.89543 29.1046 3 28 3Z"
      fill="#0E0E0E" />
    <path id="Vector_2"
      d="M4.65309 10C4.58283 9.99963 4.51327 10.0141 4.44896 10.0424C4.38465 10.0707 4.32703 10.1122 4.27985 10.1643C4.23267 10.2164 4.197 10.2778 4.17516 10.3446C4.15332 10.4114 4.1458 10.482 4.15309 10.5519L5.79746 26.3369C5.79713 26.3415 5.79713 26.3461 5.79746 26.3506C5.88338 27.0807 6.23439 27.7539 6.78384 28.2423C7.3333 28.7307 8.04295 29.0003 8.77809 29H23.2212C23.9561 29 24.6655 28.7302 25.2147 28.2418C25.7639 27.7535 26.1147 27.0805 26.2006 26.3506V26.3375L27.8425 10.5519C27.8498 10.482 27.8422 10.4114 27.8204 10.3446C27.7986 10.2778 27.7629 10.2164 27.7157 10.1643C27.6685 10.1122 27.6109 10.0707 27.5466 10.0424C27.4823 10.0141 27.4127 9.99963 27.3425 10H4.65309ZM20.2068 21.2931C20.3019 21.3855 20.3777 21.4958 20.4297 21.6178C20.4817 21.7397 20.509 21.8707 20.51 22.0033C20.5109 22.1358 20.4855 22.2672 20.4352 22.3899C20.3849 22.5125 20.3107 22.6239 20.2169 22.7176C20.1232 22.8113 20.0117 22.8854 19.8891 22.9357C19.7664 22.9859 19.635 23.0113 19.5025 23.0103C19.3699 23.0093 19.2389 22.982 19.117 22.9299C18.9951 22.8778 18.8848 22.802 18.7925 22.7069L16 19.9144L13.2068 22.7069C13.0184 22.8899 12.7656 22.9915 12.5029 22.9896C12.2402 22.9878 11.9888 22.8826 11.803 22.6969C11.6172 22.5112 11.512 22.2599 11.51 21.9972C11.508 21.7345 11.6095 21.4816 11.7925 21.2931L14.5856 18.5L11.7925 15.7069C11.6095 15.5184 11.508 15.2655 11.51 15.0028C11.512 14.7401 11.6172 14.4888 11.803 14.3031C11.9888 14.1174 12.2402 14.0122 12.5029 14.0104C12.7656 14.0085 13.0184 14.1101 13.2068 14.2931L16 17.0856L18.7925 14.2931C18.9809 14.1101 19.2337 14.0085 19.4964 14.0104C19.7591 14.0122 20.0105 14.1174 20.1963 14.3031C20.3821 14.4888 20.4873 14.7401 20.4893 15.0028C20.4913 15.2655 20.3898 15.5184 20.2068 15.7069L17.4137 18.5L20.2068 21.2931Z"
      fill="#0E0E0E" />
  </symbol>
</svg>