<svg xmlns="http://www.w3.org/2000/svg" viewBox="0 0 32 32">
<symbol id="reset-basket">
<path  fill-rule="evenodd" clip-rule="evenodd" d="M13.9522 4.37599C14.1909 4.08972 14.4868 3.85665 14.8211 3.69181C15.1553 3.52696 15.5204 3.43401 15.8927 3.41893C16.2651 3.40386 16.6365 3.467 16.983 3.60428C17.3294 3.74157 17.6433 3.94995 17.9042 4.21599L18.0482 4.37599L23.2909 10.6667H27.2709C27.5507 10.6661 27.8275 10.7246 28.0831 10.8384C28.3387 10.9522 28.5674 11.1187 28.7542 11.327C28.941 11.5353 29.0817 11.7808 29.1671 12.0473C29.2524 12.3137 29.2806 12.5952 29.2496 12.8733L29.1269 13.8947L28.9936 14.8813L28.8842 15.62L28.7576 16.4133L28.6136 17.2467L28.4509 18.1107L28.2696 18.992C28.1736 19.436 28.0709 19.8813 27.9602 20.324C27.665 21.4947 27.2945 22.6451 26.8509 23.768L26.5562 24.488L26.2709 25.1387L26.0016 25.7173L25.8762 25.976L25.5442 26.6293C25.1176 27.4427 24.3122 27.9227 23.4602 27.992L23.2469 28H8.74023C8.27407 28.0036 7.81569 27.8805 7.41409 27.6438C7.0125 27.407 6.68279 27.0656 6.46023 26.656L6.1509 26.056L5.9109 25.5627C5.86817 25.4718 5.82594 25.3807 5.78423 25.2893L5.51757 24.6907C4.90883 23.2766 4.41479 21.8159 4.04023 20.3227C3.96788 20.0327 3.89855 19.742 3.83223 19.4507L3.6429 18.5867L3.47357 17.7413L3.32423 16.924L3.1909 16.1413L3.0749 15.4027L2.97623 14.7187L2.85623 13.808L2.76823 13.0667C2.76055 12.9987 2.75299 12.9307 2.74557 12.8627C2.71762 12.6006 2.74214 12.3357 2.81771 12.0833C2.89327 11.8308 3.01836 11.596 3.18568 11.3924C3.353 11.1888 3.55919 11.0207 3.79221 10.8977C4.02524 10.7746 4.28043 10.6993 4.5429 10.676L4.72423 10.6667H8.70957L13.9522 4.37599ZM13.2816 16.9627C13.1914 16.6481 12.9886 16.3776 12.7119 16.2029C12.4352 16.0281 12.1039 15.9612 11.7811 16.0149C11.4583 16.0686 11.1665 16.2391 10.9613 16.494C10.756 16.749 10.6517 17.0705 10.6682 17.3973L10.6856 17.552L11.3522 21.552L11.3856 21.704C11.4758 22.0186 11.6785 22.289 11.9552 22.4638C12.2319 22.6386 12.5632 22.7055 12.886 22.6518C13.2089 22.5981 13.5007 22.4275 13.7059 22.1726C13.9111 21.9177 14.0154 21.5962 13.9989 21.2693L13.9816 21.1147L13.3149 17.1147L13.2816 16.9627ZM20.2189 16.0187C19.8966 15.9649 19.5659 16.0313 19.2894 16.2054C19.0128 16.3794 18.8098 16.6489 18.7189 16.9627L18.6856 17.1147L18.0189 21.1147C17.9632 21.4501 18.0379 21.7942 18.2275 22.0764C18.4171 22.3587 18.7075 22.5578 19.0391 22.6331C19.3707 22.7084 19.7185 22.6541 20.0115 22.4814C20.3044 22.3087 20.5203 22.0306 20.6149 21.704L20.6482 21.552L21.3149 17.552C21.3727 17.2033 21.2898 16.846 21.0843 16.5585C20.8787 16.271 20.5675 16.0768 20.2189 16.0187ZM16.0002 6.08265L12.1802 10.6667H19.8202L16.0002 6.08265Z"/>
</symbol>
</svg>
